<svg width="169" height="80" viewBox="0 0 169 80" fill="none" xmlns="http://www.w3.org/2000/svg">
<path d="M10 53.5L31 40L10 26.5" stroke="#69B200" stroke-width="5" stroke-linecap="round" stroke-linejoin="round"/>
<path fill-rule="evenodd" clip-rule="evenodd" d="M56.2048 10.9971C56.7985 11.2433 57.3059 11.66 57.6629 12.1945C58.0198 12.729 58.2102 13.3574 58.2101 14.0001V66.0001C58.2101 66.8621 57.8677 67.6887 57.2582 68.2982C56.6487 68.9077 55.822 69.2501 54.9601 69.2501C54.0981 69.2501 53.2715 68.9077 52.662 68.2982C52.0525 67.6887 51.7101 66.8621 51.7101 66.0001V21.8456L47.5078 26.0479C46.8949 26.6399 46.0739 26.9675 45.2218 26.9601C44.3696 26.9527 43.5545 26.6109 42.9519 26.0083C42.3493 25.4057 42.0075 24.5906 42.0001 23.7384C41.9927 22.8863 42.3203 22.0653 42.9123 21.4524L52.6623 11.7024C53.1168 11.2476 53.696 10.9378 54.3266 10.8123C54.9571 10.6868 55.6108 10.7511 56.2048 10.9971Z" fill="#69B200"/>
<path fill-rule="evenodd" clip-rule="evenodd" d="M88.7109 17.25C85.2631 17.25 81.9565 18.6196 79.5185 21.0576C77.0806 23.4956 75.7109 26.8022 75.7109 30.25V49.75C75.7109 53.1978 77.0806 56.5044 79.5185 58.9424C81.9565 61.3804 85.2631 62.75 88.7109 62.75C92.1588 62.75 95.4654 61.3804 97.9033 58.9424C100.341 56.5044 101.711 53.1978 101.711 49.75V30.25C101.711 26.8022 100.341 23.4956 97.9033 21.0576C95.4654 18.6196 92.1588 17.25 88.7109 17.25ZM69.2109 30.25C69.2109 25.0783 71.2654 20.1184 74.9224 16.4614C78.5793 12.8045 83.5392 10.75 88.7109 10.75C93.8827 10.75 98.8426 12.8045 102.5 16.4614C106.156 20.1184 108.211 25.0783 108.211 30.25V49.75C108.211 54.9217 106.156 59.8816 102.5 63.5386C98.8426 67.1955 93.8827 69.25 88.7109 69.25C83.5392 69.25 78.5793 67.1955 74.9224 63.5386C71.2654 59.8816 69.2109 54.9217 69.2109 49.75V30.25Z" fill="#69B200"/>
<path fill-rule="evenodd" clip-rule="evenodd" d="M138.711 17.25C135.263 17.25 131.957 18.6196 129.519 21.0576C127.081 23.4956 125.711 26.8022 125.711 30.25V49.75C125.711 53.1978 127.081 56.5044 129.519 58.9424C131.957 61.3804 135.263 62.75 138.711 62.75C142.159 62.75 145.465 61.3804 147.903 58.9424C150.341 56.5044 151.711 53.1978 151.711 49.75V30.25C151.711 26.8022 150.341 23.4956 147.903 21.0576C145.465 18.6196 142.159 17.25 138.711 17.25ZM119.211 30.25C119.211 25.0783 121.265 20.1184 124.922 16.4614C128.579 12.8045 133.539 10.75 138.711 10.75C143.883 10.75 148.843 12.8045 152.5 16.4614C156.156 20.1184 158.211 25.0783 158.211 30.25V49.75C158.211 54.9217 156.156 59.8816 152.5 63.5386C148.843 67.1955 143.883 69.25 138.711 69.25C133.539 69.25 128.579 67.1955 124.922 63.5386C121.265 59.8816 119.211 54.9217 119.211 49.75V30.25Z" fill="#69B200"/>
</svg>
