<svg width="53" height="80" viewBox="0 0 53 80" fill="none" xmlns="http://www.w3.org/2000/svg">
<path fill-rule="evenodd" clip-rule="evenodd" d="M10.211 14.0042C10.211 13.1422 10.5534 12.3155 11.1629 11.7061C11.7723 11.0966 12.599 10.7542 13.461 10.7542H39.461C40.0785 10.7544 40.6832 10.9306 41.2042 11.262C41.7253 11.5935 42.1411 12.0666 42.403 12.6258C42.6649 13.1851 42.762 13.8074 42.683 14.4199C42.604 15.0324 42.3522 15.6096 41.957 16.0841L29.334 31.2357C32.0163 32.1246 34.4734 33.5859 36.5352 35.5184C38.5969 37.451 40.214 39.8085 41.2744 42.4278C42.3349 45.0471 42.8134 47.8656 42.6768 50.6881C42.5402 53.5107 41.7918 56.2698 40.4834 58.7744C39.175 61.2791 37.3379 63.4695 35.0992 65.1939C32.8605 66.9184 30.2738 68.1356 27.5181 68.7614C24.7625 69.3872 21.9037 69.4067 19.1398 68.8183C16.3759 68.23 13.7729 67.048 11.511 65.3541C11.1695 65.0981 10.8819 64.7772 10.6644 64.41C10.447 64.0428 10.304 63.6363 10.2436 63.2138C10.1217 62.3605 10.3438 61.4937 10.861 60.8041C11.3781 60.1146 12.148 59.6587 13.0013 59.5368C13.8546 59.4149 14.7214 59.637 15.411 60.1542C17.0589 61.3901 18.9769 62.2167 21.0069 62.566C23.037 62.9152 25.1209 62.777 27.0871 62.1628C29.0533 61.5486 30.8454 60.476 32.3157 59.0334C33.786 57.5907 34.8924 55.8193 35.5438 53.8651C36.1952 51.9109 36.3729 49.83 36.0623 47.7936C35.7516 45.7573 34.9615 43.824 33.7571 42.1529C32.5527 40.4819 30.9684 39.1209 29.1348 38.1823C27.3012 37.2436 25.2708 36.7542 23.211 36.7542C22.5934 36.7539 21.9887 36.5777 21.4677 36.2463C20.9466 35.9148 20.5308 35.4417 20.2689 34.8825C20.007 34.3232 19.9099 33.7009 19.9889 33.0884C20.0679 32.4759 20.3197 31.8987 20.715 31.4241L32.5222 17.2542H13.461C12.599 17.2542 11.7723 16.9117 11.1629 16.3022C10.5534 15.6928 10.211 14.8661 10.211 14.0042Z" fill="#69B200"/>
</svg>
