<svg width="59" height="80" viewBox="0 0 59 80" fill="none" xmlns="http://www.w3.org/2000/svg">
<path fill-rule="evenodd" clip-rule="evenodd" d="M22.9984 23.7493C22.9984 22.0254 23.6832 20.3721 24.9022 19.1531C26.1212 17.9342 27.7745 17.2493 29.4984 17.2493C31.2223 17.2493 32.8756 17.9342 34.0946 19.1531C35.3136 20.3721 35.9984 22.0254 35.9984 23.7493C35.9984 25.4732 35.3136 27.1265 34.0946 28.3455C32.8756 29.5645 31.2223 30.2493 29.4984 30.2493C27.7745 30.2493 26.1212 29.5645 24.9022 28.3455C23.6832 27.1265 22.9984 25.4732 22.9984 23.7493ZM38.9429 32.6868C40.689 30.8414 41.8561 28.5248 42.3 26.0233C42.7439 23.5219 42.4451 20.9451 41.4406 18.6116C40.436 16.2781 38.7697 14.29 36.6476 12.8932C34.5255 11.4964 32.0406 10.752 29.5 10.752C26.9594 10.752 24.4746 11.4964 22.3524 12.8932C20.2303 14.29 18.564 16.2781 17.5595 18.6116C16.5549 20.9451 16.2561 23.5219 16.7 26.0233C17.1439 28.5248 18.311 30.8414 20.0571 32.6868C16.275 34.7802 13.2956 38.0709 11.5873 42.0419C9.87896 46.0128 9.53856 50.4389 10.6196 54.6243C11.7006 58.8098 14.1417 62.5174 17.5593 65.1645C20.9769 67.8116 25.1772 69.248 29.5 69.248C33.8228 69.248 38.0231 67.8116 41.4407 65.1645C44.8583 62.5174 47.2994 58.8098 48.3805 54.6243C49.4615 50.4389 49.1211 46.0128 47.4127 42.0419C45.7044 38.0709 42.7251 34.7802 38.9429 32.6868ZM29.4984 36.7493C26.0506 36.7493 22.744 38.119 20.306 40.5569C17.868 42.9949 16.4984 46.3015 16.4984 49.7493C16.4984 53.1971 17.868 56.5037 20.306 58.9417C22.744 61.3797 26.0506 62.7493 29.4984 62.7493C32.9462 62.7493 36.2528 61.3797 38.6908 58.9417C41.1287 56.5037 42.4984 53.1971 42.4984 49.7493C42.4984 46.3015 41.1287 42.9949 38.6908 40.5569C36.2528 38.119 32.9462 36.7493 29.4984 36.7493Z" fill="#69B200"/>
</svg>
