<svg width="78" height="78" viewBox="0 0 78 78" fill="none" xmlns="http://www.w3.org/2000/svg">
<path d="M38.6478 10C24.3207 9.99345 15.3591 25.4989 22.517 37.9098C26.801 45.3379 34.7666 48.8957 43 46.5L32.5 64.5C31.4958 66.2909 33.9695 68.5256 36.0225 68.4998C36.9753 68.4878 37.8494 67.9684 38.3154 67.1373L54.7833 37.8906C61.92 25.4822 52.9623 9.9983 38.6478 10ZM38.6478 41.5C28.4141 41.5 22.8832 30.8271 28 21.9645C32 15.0363 43.839 13 49.5 21.9645C50.6667 23.9855 51.5 25.6664 51.5 28C51.5 35.342 45.9898 41.5 38.6478 41.5Z" fill="#69B200"/>
</svg>
