<svg width="406" height="46" viewBox="0 0 406 46" fill="none" xmlns="http://www.w3.org/2000/svg">
<path d="M3 20C1.34315 20 4.53014e-10 21.3431 0 23C-4.53014e-10 24.6569 1.34315 26 3 26L3 20ZM405.121 25.1213C406.293 23.9497 406.293 22.0503 405.121 20.8787L386.029 1.7868C384.858 0.615224 382.958 0.615224 381.787 1.7868C380.615 2.95837 380.615 4.85787 381.787 6.02944L398.757 23L381.787 39.9706C380.615 41.1421 380.615 43.0416 381.787 44.2132C382.958 45.3848 384.858 45.3848 386.029 44.2132L405.121 25.1213ZM3 26H403L403 20H3L3 26Z" fill="#A30049"/>
</svg>
