<svg width="80" height="80" viewBox="0 0 80 80" fill="none" xmlns="http://www.w3.org/2000/svg">
<path fill-rule="evenodd" clip-rule="evenodd" d="M15 5C15 3.67392 15.5268 2.40215 16.4645 1.46447C17.4021 0.526784 18.6739 0 20 0L60 0C61.326 0.000283187 62.5975 0.527253 63.535 1.465L73.535 11.465C74.4727 12.4025 74.9997 13.674 75 15V40C73.4522 38.8361 71.7742 37.8562 70 37.08V20H60C58.6739 20 57.4021 19.4732 56.4645 18.5355C55.5268 17.5979 55 16.3261 55 15V5H20V65H35.5C35.85 66.74 36.385 68.41 37.08 70H20C18.6739 70 17.4021 69.4732 16.4645 68.5355C15.5268 67.5979 15 66.3261 15 65V5ZM40 75H10V10C8.67392 10 7.40215 10.5268 6.46447 11.4645C5.52678 12.4021 5 13.6739 5 15V75C5 76.3261 5.52678 77.5979 6.46447 78.5355C7.40215 79.4732 8.67392 80 10 80H45C43.1061 78.5772 41.4228 76.8939 40 75ZM80 60C80 65.3043 77.8929 70.3914 74.1421 74.1421C70.3914 77.8929 65.3043 80 60 80C54.6957 80 49.6086 77.8929 45.8579 74.1421C42.1071 70.3914 40 65.3043 40 60C40 54.6957 42.1071 49.6086 45.8579 45.8579C49.6086 42.1071 54.6957 40 60 40C65.3043 40 70.3914 42.1071 74.1421 45.8579C77.8929 49.6086 80 54.6957 80 60ZM71.77 53.23C72.0028 53.4622 72.1875 53.7381 72.3136 54.0418C72.4396 54.3456 72.5045 54.6712 72.5045 55C72.5045 55.3288 72.4396 55.6544 72.3136 55.9582C72.1875 56.2619 72.0028 56.5378 71.77 56.77L59.27 69.27C59.0378 69.5028 58.7619 69.6875 58.4582 69.8136C58.1544 69.9396 57.8288 70.0045 57.5 70.0045C57.1712 70.0045 56.8456 69.9396 56.5418 69.8136C56.2381 69.6875 55.9622 69.5028 55.73 69.27L50.73 64.27C50.2606 63.8006 49.9968 63.1639 49.9968 62.5C49.9968 61.8361 50.2606 61.1994 50.73 60.73C51.1994 60.2606 51.8361 59.9968 52.5 59.9968C53.1639 59.9968 53.8006 60.2606 54.27 60.73L57.5 63.965L68.23 53.23C68.4622 52.9972 68.7381 52.8125 69.0418 52.6864C69.3456 52.5604 69.6712 52.4955 70 52.4955C70.3288 52.4955 70.6544 52.5604 70.9582 52.6864C71.2619 52.8125 71.5378 52.9972 71.77 53.23Z" fill="#A30049"/>
</svg>
