<svg width="902" height="340" viewBox="0 0 902 340" fill="none" xmlns="http://www.w3.org/2000/svg">
<mask id="path-1-inside-1_601_2804" fill="white">
<path d="M892 330L170 330C81.6345 330 10 258.366 10 170C10 81.6344 81.6345 9.99999 170 9.99999L892 9.99999V330Z"/>
</mask>
<path d="M892 333L170 333C79.9776 333 7.00002 260.022 7.00002 170H13C13 256.709 83.2913 327 170 327L892 327V333ZM7.00002 170C7.00002 79.9776 79.9776 6.99999 170 6.99999L892 6.99999V13L170 13C83.2913 13 13 83.2913 13 170H7.00002ZM892 9.99999V330V9.99999ZM170 333C79.9776 333 7.00002 260.022 7.00002 170C7.00002 79.9776 79.9776 6.99999 170 6.99999V13C83.2913 13 13 83.2913 13 170C13 256.709 83.2913 327 170 327V333Z" fill="#A30049" mask="url(#path-1-inside-1_601_2804)"/>
</svg>
