<svg width="940" height="339" viewBox="0 0 940 339" fill="none" xmlns="http://www.w3.org/2000/svg">
<mask id="path-1-inside-1_1_3" fill="white">
<path d="M10 10H770.5C858.589 10 930 81.4106 930 169.5V169.5C930 257.589 858.589 329 770.5 329H10V10Z"/>
</mask>
<path d="M10 7H770.5C860.246 7 933 79.7537 933 169.5H927C927 83.0674 856.933 13 770.5 13H10V7ZM933 169.5C933 259.246 860.246 332 770.5 332H10V326H770.5C856.933 326 927 255.933 927 169.5H933ZM10 329V10V329ZM770.5 7C860.246 7 933 79.7537 933 169.5C933 259.246 860.246 332 770.5 332V326C856.933 326 927 255.933 927 169.5C927 83.0674 856.933 13 770.5 13V7Z" fill="#A30049" mask="url(#path-1-inside-1_1_3)"/>
</svg>
