<svg width="53" height="68" viewBox="0 0 53 68" fill="none" xmlns="http://www.w3.org/2000/svg">
<path d="M44.5035 2H8.05854C6.44757 2 4.90258 2.67604 3.76346 3.8794C2.62433 5.08276 1.98438 6.71486 1.98438 8.41667V59.75C1.98438 61.4518 2.62433 63.0839 3.76346 64.2873C4.90258 65.4906 6.44757 66.1667 8.05854 66.1667H44.5035C46.1145 66.1667 47.6595 65.4906 48.7986 64.2873C49.9378 63.0839 50.5777 61.4518 50.5777 59.75V8.41667C50.5777 6.71486 49.9378 5.08276 48.7986 3.8794C47.6595 2.67604 46.1145 2 44.5035 2Z" stroke="#A30049" stroke-width="3" stroke-linecap="round" stroke-linejoin="round"/>
<path d="M17.3998 45.183L18.428 44.447C22.7563 41.3405 29.7733 41.3405 34.0987 44.447L35.1268 45.183M14.4453 17.583H14.4749M38.0814 17.583H38.1109M26.2633 17.583H26.2929M26.2633 29.8497H26.2929M38.0814 29.8497H38.1109M14.4453 29.8497H14.4749M20.3543 63.583V43.6497M32.1723 43.6497V63.583" stroke="#A30049" stroke-width="4" stroke-linecap="round" stroke-linejoin="round"/>
</svg>
