<svg width="62" height="42" viewBox="0 0 62 42" fill="none" xmlns="http://www.w3.org/2000/svg">
<path d="M0.972656 41.7083V0H4.00974V28.875H29.825V6.41667H52.6031C55.1097 6.41667 57.2549 7.35885 59.0387 9.24321C60.8224 11.1276 61.7143 13.3937 61.7143 16.0417V41.7083H58.6772V32.0833H4.00974V41.7083H0.972656ZM16.152 22.8273C14.3642 22.8273 12.8477 22.1674 11.6024 20.8477C10.3572 19.5259 9.73464 17.9217 9.73464 16.0352C9.73464 14.1466 10.3593 12.5446 11.6085 11.2292C12.8598 9.91375 14.3783 9.25604 16.1641 9.25604C17.952 9.25604 19.4685 9.91589 20.7137 11.2356C21.9589 12.5574 22.5815 14.1616 22.5815 16.0481C22.5815 17.9367 21.9569 19.5387 20.7076 20.8542C19.4563 22.1696 17.9378 22.8273 16.152 22.8273ZM32.862 28.875H58.6772V16.0417C58.6772 14.2771 58.083 12.767 56.8945 11.5115C55.706 10.256 54.2755 9.62714 52.6031 9.625H32.862V28.875ZM16.1581 19.619C17.0955 19.619 17.8953 19.2703 18.5574 18.573C19.2154 17.8758 19.5444 17.032 19.5444 16.0417C19.5444 15.0514 19.2144 14.2065 18.5543 13.5071C17.8943 12.8141 17.0955 12.4676 16.1581 12.4676C15.2206 12.4676 14.4209 12.8162 13.7588 13.5135C13.1007 14.2108 12.7717 15.0546 12.7717 16.0449C12.7717 17.0352 13.1018 17.88 13.7618 18.5795C14.4219 19.2746 15.2206 19.6222 16.1581 19.6222" fill="#A30049"/>
</svg>
