<svg width="54" height="63" viewBox="0 0 54 63" fill="none" xmlns="http://www.w3.org/2000/svg">
<path d="M52.3006 34.1307V52.6107C52.1639 57.4232 40.9115 61.1769 27.0624 61.1769C13.2133 61.1769 1.96089 57.359 1.82422 52.6107V34.1307M12.2566 4.00442C13.3196 6.58713 15.5215 9.84359 15.4455 11.7365C15.4696 12.1863 15.4037 12.6364 15.2521 13.0574C15.1005 13.4785 14.8667 13.8612 14.5659 14.1805C14.2651 14.4998 13.904 14.7486 13.5061 14.9107C13.1082 15.0728 12.6825 15.1445 12.2566 15.1213C11.8307 15.1445 11.405 15.0728 11.0071 14.9107C10.6092 14.7486 10.2481 14.4998 9.94729 14.1805C9.64646 13.8612 9.41266 13.4785 9.26111 13.0574C9.10955 12.6364 9.04364 12.1863 9.06766 11.7365C8.99174 9.84359 11.1936 6.58713 12.2718 4.00442H12.2566ZM27.0624 1.82275C28.1406 4.40546 30.3424 7.66192 30.2665 9.55484C30.293 10.0073 30.2283 10.4606 30.0769 10.8848C29.9254 11.309 29.6906 11.6945 29.3878 12.0158C29.0851 12.3371 28.7213 12.587 28.3205 12.749C27.9196 12.911 27.4909 12.9815 27.0624 12.9557C26.6375 12.9668 26.2149 12.8863 25.8204 12.7191C25.4259 12.5519 25.0678 12.3015 24.7679 11.9833C24.4681 11.665 24.2328 11.2855 24.0764 10.868C23.92 10.4505 23.8458 10.0037 23.8583 9.55484C23.8583 7.66192 25.9842 4.40546 27.0624 1.82275ZM41.7619 3.98838C42.84 6.57109 45.0267 9.82755 44.966 11.7205C44.9807 12.1699 44.908 12.6177 44.7524 13.0363C44.5968 13.4549 44.3616 13.8353 44.0613 14.1541C43.761 14.4728 43.402 14.7231 43.0065 14.8895C42.611 15.0558 42.1874 15.1347 41.7619 15.1213C41.3364 15.1347 40.9128 15.0558 40.5173 14.8895C40.1218 14.7231 39.7628 14.4728 39.4625 14.1541C39.1622 13.8353 38.9269 13.4549 38.7713 13.0363C38.6157 12.6177 38.543 12.1699 38.5577 11.7205C38.5577 9.82755 40.6837 6.57109 41.7619 3.98838Z" stroke="#A30049" stroke-width="2" stroke-linecap="round" stroke-linejoin="round"/>
<path d="M52.3153 34.2109C52.1634 38.9593 40.911 42.7291 27.0619 42.7291C13.2128 42.7291 1.96045 38.9593 1.82378 34.2109V34.1307M1.80859 34.1147C1.94526 29.3022 13.1977 25.5484 27.0468 25.5484C40.8959 25.5484 52.1483 29.3664 52.2849 34.1147V34.1949M27.0164 16.1641V28.8209M12.2562 18.3297V31.4999M41.7614 18.3297V31.4999" stroke="#A30049" stroke-width="2" stroke-linecap="round" stroke-linejoin="round"/>
</svg>
