<svg width="73" height="72" viewBox="0 0 73 72" fill="none" xmlns="http://www.w3.org/2000/svg">
<ellipse cx="25.2383" cy="26.5445" rx="8.12894" ry="7.05619" fill="white" stroke="#A30049" stroke-width="3"/>
<ellipse cx="49.1817" cy="26.5445" rx="8.12894" ry="7.05619" fill="white" stroke="#A30049" stroke-width="3"/>
<path d="M17.1094 45.9639C17.1094 41.4744 20.7488 37.835 25.2383 37.835C29.7278 37.835 33.3672 41.4744 33.3672 45.9639V60.8852H17.1094V45.9639Z" fill="white" stroke="#A30049" stroke-width="3"/>
<path d="M46.2955 40.929C47.134 38.0461 51.2183 38.0461 52.0568 40.929L56.9979 57.9183C57.5562 59.8378 56.1163 61.7561 54.1173 61.7561H44.235C42.2359 61.7561 40.7961 59.8378 41.3544 57.9183L46.2955 40.929Z" fill="white" stroke="#A30049" stroke-width="3"/>
<path d="M13.2584 35.7475C-12.0848 19.2797 9.91082 -10.827 37.6449 8.45989C61.0756 -10.3565 85.4625 15.9863 61.0756 35.7475" stroke="#A30049" stroke-width="3"/>
</svg>
