<svg width="27" height="27" viewBox="0 0 27 27" fill="none" xmlns="http://www.w3.org/2000/svg">
<path d="M13.5 25C11.9028 25 10.4067 24.6965 9.01181 24.0896C7.6169 23.4826 6.40301 22.6627 5.37014 21.6299C4.33727 20.597 3.51736 19.3831 2.91042 17.9882C2.30347 16.5933 2 15.0972 2 13.5C2 11.9028 2.30347 10.4067 2.91042 9.01181C3.51736 7.6169 4.33727 6.40301 5.37014 5.37014C6.40301 4.33727 7.6169 3.51736 9.01181 2.91042C10.4067 2.30347 11.9028 2 13.5 2C15.2463 2 16.9021 2.37269 18.4674 3.11806C20.0326 3.86343 21.3583 4.91759 22.4444 6.28056V3.27778H25V10.9444H17.3333V8.38889H20.8472C19.9741 7.1963 18.8986 6.25926 17.6208 5.57778C16.3431 4.8963 14.9694 4.55556 13.5 4.55556C11.0083 4.55556 8.89468 5.42338 7.15903 7.15903C5.42338 8.89468 4.55556 11.0083 4.55556 13.5C4.55556 15.9917 5.42338 18.1053 7.15903 19.841C8.89468 21.5766 11.0083 22.4444 13.5 22.4444C15.7361 22.4444 17.69 21.7204 19.3618 20.2722C21.0336 18.8241 22.0185 16.9926 22.3167 14.7778H24.9361C24.6167 17.6954 23.3655 20.1285 21.1826 22.0771C18.9998 24.0257 16.4389 25 13.5 25ZM17.0778 18.8667L12.2222 14.0111V7.11111H14.7778V12.9889L18.8667 17.0778L17.0778 18.8667Z" fill="#A30049"/>
</svg>
