<svg width="46" height="46" viewBox="0 0 46 46" fill="none" xmlns="http://www.w3.org/2000/svg">
<path d="M23 23C24.1 23 25.0417 22.6867 25.825 22.06C26.6083 21.4333 27 20.68 27 19.8C27 18.92 26.6083 18.1667 25.825 17.54C25.0417 16.9133 24.1 16.6 23 16.6C21.9 16.6 20.9583 16.9133 20.175 17.54C19.3917 18.1667 19 18.92 19 19.8C19 20.68 19.3917 21.4333 20.175 22.06C20.9583 22.6867 21.9 23 23 23ZM23 34.76C27.0667 31.7733 30.0833 29.06 32.05 26.62C34.0167 24.18 35 22.0133 35 20.12C35 17.2133 33.8417 14.8333 31.525 12.98C29.2083 11.1267 26.3667 10.2 23 10.2C19.6333 10.2 16.7917 11.1267 14.475 12.98C12.1583 14.8333 11 17.2133 11 20.12C11 22.0133 11.9833 24.18 13.95 26.62C15.9167 29.06 18.9333 31.7733 23 34.76ZM23 39C17.6333 35.3467 13.625 31.9533 10.975 28.82C8.325 25.6867 7 22.7867 7 20.12C7 16.12 8.60833 12.9333 11.825 10.56C15.0417 8.18667 18.7667 7 23 7C27.2333 7 30.9583 8.18667 34.175 10.56C37.3917 12.9333 39 16.12 39 20.12C39 22.7867 37.675 25.6867 35.025 28.82C32.375 31.9533 28.3667 35.3467 23 39Z" fill="#A30049"/>
</svg>
