<svg width="27" height="27" viewBox="0 0 27 27" fill="none" xmlns="http://www.w3.org/2000/svg">
<path d="M13.5 25C11.9092 25 10.4142 24.6981 9.015 24.0944C7.61583 23.4906 6.39875 22.6713 5.36375 21.6362C4.32875 20.6012 3.50938 19.3842 2.90562 17.985C2.30187 16.5858 2 15.0908 2 13.5C2 11.9092 2.30187 10.4142 2.90562 9.015C3.50938 7.61583 4.32875 6.39875 5.36375 5.36375C6.39875 4.32875 7.61583 3.50938 9.015 2.90562C10.4142 2.30187 11.9092 2 13.5 2C15.0908 2 16.5858 2.30187 17.985 2.90562C19.3842 3.50938 20.6012 4.32875 21.6362 5.36375C22.6713 6.39875 23.4906 7.61583 24.0944 9.015C24.6981 10.4142 25 11.9092 25 13.5C25 15.0908 24.6981 16.5858 24.0944 17.985C23.4906 19.3842 22.6713 20.6012 21.6362 21.6362C20.6012 22.6713 19.3842 23.4906 17.985 24.0944C16.5858 24.6981 15.0908 25 13.5 25ZM13.5 19.825C14.3625 18.9625 15.1292 18.0712 15.8 17.1512C16.375 16.3654 16.9021 15.5029 17.3812 14.5638C17.8604 13.6246 18.1 12.695 18.1 11.775C18.1 10.51 17.6496 9.42708 16.7487 8.52625C15.8479 7.62542 14.765 7.175 13.5 7.175C12.235 7.175 11.1521 7.62542 10.2513 8.52625C9.35042 9.42708 8.9 10.51 8.9 11.775C8.9 12.695 9.13958 13.6246 9.61875 14.5638C10.0979 15.5029 10.625 16.3654 11.2 17.1512C11.8708 18.0712 12.6375 18.9625 13.5 19.825ZM13.5 13.5C13.0208 13.5 12.6135 13.3323 12.2781 12.9969C11.9427 12.6615 11.775 12.2542 11.775 11.775C11.775 11.2958 11.9427 10.8885 12.2781 10.5531C12.6135 10.2177 13.0208 10.05 13.5 10.05C13.9792 10.05 14.3865 10.2177 14.7219 10.5531C15.0573 10.8885 15.225 11.2958 15.225 11.775C15.225 12.2542 15.0573 12.6615 14.7219 12.9969C14.3865 13.3323 13.9792 13.5 13.5 13.5Z" fill="#A30049"/>
</svg>
