<svg width="46" height="46" viewBox="0 0 46 46" fill="none" xmlns="http://www.w3.org/2000/svg">
<path d="M37.1333 38.1109C33.4296 38.1109 29.7704 37.3483 26.1556 35.8232C22.5407 34.2981 19.2519 32.1364 16.2889 29.3381C13.3259 26.5397 11.037 23.4335 9.42222 20.0195C7.80741 16.6055 7 13.1496 7 9.65163C7 9.14793 7.17778 8.72818 7.53333 8.39238C7.88889 8.05657 8.33333 7.88867 8.86667 7.88867H16.0667C16.4815 7.88867 16.8519 8.02159 17.1778 8.28744C17.5037 8.55328 17.6963 8.8681 17.7556 9.23188L18.9111 15.1084C18.9704 15.5562 18.9556 15.9339 18.8667 16.2418C18.7778 16.5496 18.6148 16.8154 18.3778 17.0393L14.0667 21.1529C14.6593 22.1883 15.363 23.1887 16.1778 24.1541C16.9926 25.1195 17.8889 26.05 18.8667 26.9455C19.7852 27.813 20.7481 28.6175 21.7556 29.359C22.763 30.1006 23.8296 30.7792 24.9556 31.3948L29.1333 27.4492C29.4 27.1973 29.7481 27.0084 30.1778 26.8825C30.6074 26.7566 31.0296 26.7216 31.4444 26.7776L37.5778 27.9529C37.9926 28.0648 38.3333 28.2677 38.6 28.5615C38.8667 28.8553 39 29.1841 39 29.5479V36.3479C39 36.8516 38.8222 37.2714 38.4667 37.6072C38.1111 37.943 37.6667 38.1109 37.1333 38.1109ZM12.3778 17.9627L15.3111 15.1924L14.5556 11.2467H10.6C10.7481 12.394 10.9556 13.5274 11.2222 14.6467C11.4889 15.766 11.8741 16.8714 12.3778 17.9627ZM28.2889 32.9899C29.4444 33.4656 30.6222 33.8434 31.8222 34.1232C33.0222 34.4031 34.2296 34.585 35.4444 34.6689V30.9751L31.2667 30.1776L28.2889 32.9899Z" fill="#A30049"/>
</svg>
