<svg width="46" height="46" viewBox="0 0 46 46" fill="none" xmlns="http://www.w3.org/2000/svg">
<path d="M10.2 34.5C9.32 34.5 8.56667 34.2185 7.94 33.6555C7.31333 33.0924 7 32.4156 7 31.625V14.375C7 13.5844 7.31333 12.9076 7.94 12.3445C8.56667 11.7815 9.32 11.5 10.2 11.5H35.8C36.68 11.5 37.4333 11.7815 38.06 12.3445C38.6867 12.9076 39 13.5844 39 14.375V31.625C39 32.4156 38.6867 33.0924 38.06 33.6555C37.4333 34.2185 36.68 34.5 35.8 34.5H10.2ZM23 24.4375L10.2 17.25V31.625H35.8V17.25L23 24.4375ZM23 21.5625L35.8 14.375H10.2L23 21.5625ZM10.2 17.25V14.375V31.625V17.25Z" fill="#A30049"/>
</svg>
