<svg width="80" height="80" viewBox="0 0 80 80" fill="none" xmlns="http://www.w3.org/2000/svg">
<g clip-path="url(#clip0_730_2607)">
<path d="M68.5475 49.3333C66.5251 55.5763 62.5115 60.984 57.1218 64.7276C51.732 68.4713 45.2633 70.3444 38.7071 70.0599C32.1509 69.7755 25.8688 67.3491 20.8236 63.1527C15.7783 58.9563 12.2482 53.2213 10.7741 46.8266L16.4475 45.7066L5.64747 34.5333L-0.00585938 48.98L5.97414 47.8066C7.64305 55.3133 11.7377 62.0614 17.6254 67.0081C23.5131 71.9548 30.8661 74.8248 38.548 75.1745C46.23 75.5243 53.8133 73.3344 60.1262 68.9432C66.439 64.552 71.13 58.2039 73.4741 50.88L68.5475 49.3333ZM74.1208 32.4C72.4511 24.8936 68.3557 18.1461 62.4676 13.2001C56.5794 8.25404 49.2263 5.38484 41.5444 5.03584C33.8625 4.68683 26.2794 6.87745 19.967 11.2692C13.6547 15.6609 8.96433 22.0093 6.62081 29.3333L11.3741 30.88C13.3958 24.6369 17.4088 19.2289 22.7981 15.4847C28.1874 11.7405 34.6558 9.86671 41.2119 10.1504C47.7681 10.4341 54.0503 12.8597 59.0961 17.0554C64.1418 21.2511 67.6726 26.9856 69.1475 33.38L63.4741 34.5066L74.2741 45.6533L79.9941 31.2266L74.1208 32.4Z" fill="#A30049"/>
<path fill-rule="evenodd" clip-rule="evenodd" d="M60.3197 26.5133L58.693 39.5267C58.215 43.3514 56.859 47.0138 54.7311 50.2277C52.6031 53.4416 49.7609 56.1199 46.4264 58.0533L39.9997 61.78L33.573 58.0467C30.2393 56.1139 27.3976 53.4366 25.2697 50.2239C23.1418 47.0113 21.7854 43.3502 21.3064 39.5267L19.6797 26.5133L21.973 24.7667L24.9997 28.7467L26.2664 38.9067C26.649 41.9662 27.7339 44.8959 29.4362 47.4667C31.1386 50.0376 33.4123 52.18 36.0797 53.7267L39.9997 56L43.9197 53.7267C46.5871 52.18 48.8608 50.0376 50.5632 47.4667C52.2655 44.8959 53.3504 41.9662 53.733 38.9067L54.9997 28.7467L58.0264 24.7667L60.3197 26.5133ZM54.9997 28.7467C54.9997 28.7467 48.753 24 39.9997 24C31.2464 24 24.9997 28.7467 24.9997 28.7467L21.973 24.7667L21.9797 24.76L21.9997 24.7467L22.033 24.72L22.133 24.6533C22.5713 24.3311 23.0252 24.0308 23.493 23.7533C24.373 23.2067 25.6197 22.5067 27.1797 21.8133C30.2664 20.4267 34.733 19 39.9997 19C45.2664 19 49.7264 20.4267 52.8197 21.8133C54.4689 22.5509 56.0524 23.4274 57.553 24.4333L57.8664 24.6533L57.9664 24.72L57.9997 24.7467L58.013 24.76L58.0264 24.7667L54.9997 28.7467Z" fill="#A30049"/>
</g>
<defs>
<clipPath id="clip0_730_2607">
<rect width="80" height="80" fill="white"/>
</clipPath>
</defs>
</svg>
