<svg width="47" height="46" viewBox="0 0 47 46" fill="none" xmlns="http://www.w3.org/2000/svg">
<path fill-rule="evenodd" clip-rule="evenodd" d="M46.5 23C46.5 35.7025 36.2025 46 23.5 46C10.7975 46 0.5 35.7025 0.5 23C0.5 10.2975 10.7975 0 23.5 0C36.2025 0 46.5 10.2975 46.5 23ZM15.9019 20.8931C13.5979 21.8991 11.2305 22.9327 9.06582 24.125L9.06567 24.1252C7.93533 24.9528 9.43778 25.5381 10.8472 26.0872C11.0712 26.1745 11.293 26.2609 11.5014 26.3472C11.6748 26.4005 11.8512 26.4567 12.0299 26.5136C13.5974 27.013 15.3453 27.5699 16.8671 26.7322C19.367 25.2962 21.7261 23.6359 24.0835 21.977C24.8558 21.4334 25.628 20.89 26.4048 20.3547C26.4412 20.3314 26.4823 20.3048 26.5271 20.2757C27.1889 19.8467 28.6773 18.882 28.1268 20.2113C26.8249 21.635 25.4305 22.8953 24.0285 24.1624C23.0836 25.0164 22.1353 25.8735 21.2095 26.7859C20.4032 27.441 19.566 28.7584 20.4688 29.6758C22.5483 31.1316 24.6603 32.552 26.771 33.9717C27.4579 34.4336 28.1446 34.8955 28.8301 35.3585C29.9918 36.286 31.8073 35.5358 32.0627 34.0865C32.1763 33.4198 32.2903 32.7531 32.4044 32.0863C33.0346 28.4019 33.665 24.7161 34.2219 21.0196C34.2975 20.4398 34.3833 19.8599 34.4692 19.2798C34.6772 17.8739 34.8856 16.4662 34.9506 15.0526C34.7829 13.642 33.0725 13.9522 32.1206 14.2694C27.2282 16.131 22.3846 18.1307 17.5601 20.1656C17.0136 20.4077 16.4596 20.6496 15.9019 20.8931Z" fill="#A30049"/>
</svg>
