<svg width="80" height="80" viewBox="0 0 80 80" fill="none" xmlns="http://www.w3.org/2000/svg">
<rect x="2" y="2" width="76" height="76" rx="38" stroke="#A30049" stroke-width="4"/>
<path fill-rule="evenodd" clip-rule="evenodd" d="M32.446 29.032C33.2265 28.1714 33.7403 27.1028 33.9251 25.9558C34.1099 24.8088 33.9578 23.6329 33.4871 22.5707C33.0165 21.5085 32.2476 20.6059 31.2738 19.9722C30.3001 19.3386 29.1633 19.0013 28.0015 19.0013C26.8397 19.0013 25.7029 19.3386 24.7292 19.9722C23.7554 20.6059 22.9865 21.5085 22.5159 22.5707C22.0452 23.6329 21.8931 24.8088 22.0779 25.9558C22.2627 27.1028 22.7765 28.1714 23.557 29.032C23.317 29.158 23.089 29.293 22.867 29.44C21.496 30.355 20.617 31.552 20.068 32.659C19.4099 33.9911 19.0457 35.449 19 36.934V43C19 43.7957 19.3161 44.5587 19.8787 45.1213C20.4413 45.684 21.2044 46 22 46H29.5C30.0247 44.9341 30.7176 43.9597 31.552 43.114L31.513 43H22V37C22 37 22 31 28 31C31.021 31 32.521 32.521 33.265 34.03C33.94 33.268 34.744 32.62 35.644 32.122C34.885 30.8155 33.7778 29.7457 32.446 29.032ZM28 28C28.7956 28 29.5587 27.684 30.1213 27.1213C30.6839 26.5587 31 25.7957 31 25C31 24.2044 30.6839 23.4413 30.1213 22.8787C29.5587 22.3161 28.7956 22 28 22C27.2044 22 26.4413 22.3161 25.8787 22.8787C25.3161 23.4413 25 24.2044 25 25C25 25.7957 25.3161 26.5587 25.8787 27.1213C26.4413 27.684 27.2044 28 28 28ZM58 46H50.5C49.9756 44.934 49.2827 43.9595 48.448 43.114L48.487 43H58V37C58 37 58 31 52 31C48.979 31 47.479 32.521 46.735 34.03C46.0558 33.2638 45.2514 32.6187 44.356 32.122C45.1149 30.8154 46.2221 29.7456 47.554 29.032C46.7735 28.1714 46.2597 27.1028 46.0749 25.9558C45.8901 24.8088 46.0422 23.6329 46.5129 22.5707C46.9835 21.5085 47.7524 20.6059 48.7262 19.9722C49.6999 19.3386 50.8367 19.0013 51.9985 19.0013C53.1603 19.0013 54.2971 19.3386 55.2708 19.9722C56.2446 20.6059 57.0135 21.5085 57.4841 22.5707C57.9548 23.6329 58.1069 24.8088 57.9221 25.9558C57.7373 27.1028 57.2235 28.1714 56.443 29.032C56.683 29.158 56.911 29.293 57.133 29.44C58.504 30.355 59.383 31.552 59.932 32.659C60.5765 33.9598 60.9403 35.3816 61 36.832V43C61 43.7957 60.6839 44.5587 60.1213 45.1213C59.5587 45.684 58.7957 46 58 46ZM52 28C52.7957 28 53.5587 27.684 54.1213 27.1213C54.6839 26.5587 55 25.7957 55 25C55 24.2044 54.6839 23.4413 54.1213 22.8787C53.5587 22.3161 52.7957 22 52 22C51.2043 22 50.4413 22.3161 49.8787 22.8787C49.3161 23.4413 49 24.2044 49 25C49 25.7957 49.3161 26.5587 49.8787 27.1213C50.4413 27.684 51.2043 28 52 28Z" fill="#A30049"/>
<path fill-rule="evenodd" clip-rule="evenodd" d="M46 40C46 41.551 45.412 42.967 44.446 44.032C45.9582 44.8497 47.1778 46.1186 47.935 47.662C48.5916 48.9924 48.9548 50.4482 49 51.931V58C49 58.7957 48.6839 59.5587 48.1213 60.1214C47.5587 60.684 46.7956 61 46 61H34C33.2044 61 32.4413 60.684 31.8787 60.1214C31.3161 59.5587 31 58.7957 31 58V51.934C31.0014 51.7989 31.0075 51.6638 31.018 51.529C31.1128 50.183 31.4695 48.8684 32.068 47.659C32.8244 46.1161 34.0429 44.8472 35.554 44.029C34.8998 43.3071 34.4312 42.4368 34.1888 41.4932C33.9463 40.5496 33.9373 39.5612 34.1624 38.6133C34.3876 37.6655 34.8402 36.7867 35.4811 36.0529C36.122 35.3192 36.9319 34.7525 37.8408 34.402C38.7498 34.0514 39.7305 33.9274 40.6981 34.0408C41.6657 34.1541 42.5912 34.5014 43.3945 35.0525C44.1978 35.6037 44.8549 36.3422 45.3088 37.2042C45.7628 38.0662 46 39.0258 46 40ZM34 52V58H46V52C46 52 46 46 40 46C34 46 34 52 34 52ZM43 40C43 40.7957 42.6839 41.5587 42.1213 42.1214C41.5587 42.684 40.7956 43 40 43C39.2044 43 38.4413 42.684 37.8787 42.1214C37.3161 41.5587 37 40.7957 37 40C37 39.2044 37.3161 38.4413 37.8787 37.8787C38.4413 37.3161 39.2044 37 40 37C40.7956 37 41.5587 37.3161 42.1213 37.8787C42.6839 38.4413 43 39.2044 43 40Z" fill="#A30049"/>
</svg>
