<svg width="47" height="46" viewBox="0 0 47 46" fill="none" xmlns="http://www.w3.org/2000/svg">
<circle cx="23.5" cy="23" r="23" fill="#A30049"/>
<path d="M34.7775 28.8824C34.7775 28.7869 34.682 28.7869 34.682 28.6914C34.3001 27.9276 33.4409 26.9729 32.2951 25.9226C31.7223 25.4453 31.4358 25.0633 31.2449 24.8724C30.9585 24.4905 30.9585 24.2041 31.054 23.8222C31.1494 23.5357 31.5313 23.0583 32.1997 22.199C32.5816 21.7217 32.7725 21.4352 33.0589 21.1488C34.4911 19.2393 35.1594 17.9981 34.9685 17.4252L34.873 17.3298C34.7775 17.2343 34.682 17.1388 34.4911 17.1388C34.3001 17.0433 34.0137 17.0433 33.7273 17.1388H30.0992C30.0037 17.1388 30.0037 17.1388 29.8127 17.1388C29.7173 17.1388 29.6218 17.1388 29.6218 17.1388H29.5263H29.4308L29.3354 17.2343C29.2399 17.3298 29.2399 17.3298 29.2399 17.4252C28.858 18.4755 28.3806 19.3348 27.9032 20.2895C27.6168 20.7669 27.3304 21.2443 27.0439 21.6262C26.7575 22.0081 26.5665 22.2945 26.3756 22.4855C26.1846 22.6764 25.9937 22.7719 25.8982 22.9629C25.8027 23.0583 25.6118 23.1538 25.6118 23.0583C25.5163 23.0583 25.4208 23.0583 25.4208 22.9629C25.3254 22.8674 25.2299 22.7719 25.1344 22.6764C25.0389 22.581 25.0389 22.39 24.9434 22.199C24.9434 22.0081 24.9434 21.8171 24.9434 21.7217C24.9434 21.6262 24.9434 21.3398 24.9434 21.1488C24.9434 20.8624 24.9434 20.6714 24.9434 20.576C24.9434 20.2895 24.9434 19.9076 24.9434 19.5257C24.9434 19.1438 24.9434 18.8574 24.9434 18.6664C24.9434 18.4755 24.9434 18.189 24.9434 17.9981C24.9434 17.7117 24.9434 17.5207 24.9434 17.4252C24.9434 17.3298 24.848 17.1388 24.848 17.0433C24.7525 16.9479 24.657 16.8524 24.5615 16.7569C24.4661 16.6614 24.2751 16.6614 24.1796 16.5659C23.7023 16.4705 23.1294 16.375 22.4611 16.375C20.9335 16.375 19.8832 16.4705 19.5013 16.6614C19.3104 16.7569 19.1194 16.8524 19.0239 17.0433C18.833 17.2343 18.833 17.3298 18.9284 17.3298C19.4058 17.4252 19.7877 17.6162 19.9787 17.9026L20.0742 18.0936C20.1697 18.1891 20.1696 18.38 20.2651 18.6664C20.3606 18.9529 20.3606 19.2393 20.3606 19.6212C20.3606 20.194 20.3606 20.7669 20.3606 21.1488C20.3606 21.6262 20.2651 21.9126 20.2651 22.199C20.2651 22.4855 20.1697 22.6764 20.0742 22.7719C19.9787 22.9629 19.9787 23.0583 19.8832 23.0583C19.8832 23.0583 19.8832 23.1538 19.7877 23.1538C19.6923 23.1538 19.5968 23.2493 19.4058 23.2493C19.3104 23.2493 19.1194 23.1538 19.0239 23.0583C18.833 22.9629 18.642 22.7719 18.5465 22.581C18.3556 22.39 18.1646 22.1036 17.9737 21.7217C17.7827 21.3398 17.4963 20.9579 17.3053 20.385L17.1144 20.0031C17.0189 19.8122 16.828 19.4302 16.637 18.9529C16.4461 18.4755 16.2551 18.0936 16.0642 17.6162C15.9687 17.4252 15.8732 17.3298 15.7777 17.2343H15.6823C15.6823 17.2343 15.5868 17.1388 15.4913 17.1388C15.3958 17.1388 15.3004 17.0433 15.2049 17.0433H11.7677C11.3858 17.0433 11.1949 17.1388 11.0994 17.2343L11.0039 17.3298C11.0039 17.3298 11.0039 17.4252 11.0039 17.5207C11.0039 17.6162 11.0039 17.7117 11.0994 17.9026C11.5768 19.0483 12.1496 20.1941 12.7225 21.3398C13.2953 22.39 13.8682 23.3448 14.2501 24.0131C14.7275 24.6814 15.1094 25.3498 15.5868 25.9226C16.0642 26.4955 16.3506 26.8774 16.4461 27.0683C16.637 27.2593 16.7325 27.3548 16.828 27.4502L17.1144 27.7367C17.3054 27.9276 17.5918 28.2141 17.9737 28.5005C18.3556 28.7869 18.833 29.0733 19.3103 29.3598C19.7877 29.6462 20.3606 29.8372 20.9335 30.0281C21.6018 30.2191 22.1746 30.3145 22.7475 30.2191H24.1796C24.4661 30.2191 24.657 30.1236 24.848 29.9326L24.9434 29.8372C24.9434 29.7417 25.0389 29.7417 25.0389 29.6462C25.0389 29.5507 25.0389 29.4553 25.0389 29.2643C25.0389 28.8824 25.0389 28.596 25.1344 28.3095C25.2299 28.0231 25.2299 27.8322 25.3254 27.6412C25.4209 27.4503 25.5163 27.3548 25.6118 27.2593C25.7073 27.1638 25.8028 27.0683 25.8028 27.0683H25.8982C26.0892 26.9729 26.3756 27.0683 26.5666 27.2593C26.853 27.4503 27.1394 27.7367 27.3304 28.0231C27.5213 28.3095 27.8078 28.596 28.1897 28.9779C28.5716 29.3598 28.858 29.6462 29.0489 29.7417L29.3354 29.9326C29.5263 30.0281 29.7173 30.1236 30.0037 30.2191C30.2901 30.3145 30.4811 30.3145 30.672 30.3145L33.9182 30.2191C34.2047 30.2191 34.4911 30.1236 34.682 30.0281C34.873 29.9326 34.9685 29.8372 34.9685 29.6462C34.9685 29.5507 34.9685 29.3598 34.9685 29.2643C34.7775 29.0734 34.7775 28.9779 34.7775 28.8824Z" fill="white"/>
</svg>
