<svg width="47" height="46" viewBox="0 0 47 46" fill="none" xmlns="http://www.w3.org/2000/svg">
<path d="M35.878 10.6042C32.5854 7.32292 28.1951 5.5 23.561 5.5C13.9268 5.5 6.12195 13.2778 6.12195 22.8785C6.12195 25.9167 6.97561 28.9549 8.43902 31.5069L6 40.5L15.2683 38.0694C17.8293 39.4062 20.6341 40.1354 23.561 40.1354C33.1951 40.1354 41 32.3576 41 22.7569C40.878 18.2604 39.1707 13.8854 35.878 10.6042ZM31.9756 29.0764C31.6098 30.0486 29.9024 31.0208 29.0488 31.1424C28.3171 31.2639 27.3415 31.2639 26.3659 31.0208C25.7561 30.7778 24.9024 30.5347 23.9268 30.0486C19.5366 28.2257 16.7317 23.8507 16.4878 23.4861C16.2439 23.2431 14.6585 21.1771 14.6585 18.9896C14.6585 16.8021 15.7561 15.8299 16.1219 15.3437C16.4878 14.8576 16.9756 14.8576 17.3415 14.8576C17.5854 14.8576 17.9512 14.8576 18.1951 14.8576C18.439 14.8576 18.8049 14.7361 19.1707 15.5868C19.5366 16.4375 20.3902 18.625 20.5122 18.7465C20.6341 18.9896 20.6341 19.2326 20.5122 19.4757C20.3902 19.7188 20.2683 19.9618 20.0244 20.2049C19.7805 20.4479 19.5366 20.8125 19.4146 20.934C19.1707 21.1771 18.9268 21.4201 19.1707 21.7847C19.4146 22.2708 20.2683 23.6076 21.6098 24.8229C23.3171 26.2812 24.6585 26.7674 25.1463 27.0104C25.6341 27.2535 25.878 27.1319 26.1219 26.8889C26.3658 26.6458 27.2195 25.6736 27.4634 25.1875C27.7073 24.7014 28.0732 24.8229 28.439 24.9444C28.8049 25.066 31 26.1597 31.3659 26.4028C31.8537 26.6458 32.0976 26.7674 32.2195 26.8889C32.3415 27.2535 32.3415 28.1042 31.9756 29.0764Z" fill="#A30049"/>
</svg>
